{
	"asset":{
		"version":"2.0",
		"generator":"Created using the official Cinema 4D glTF Exporter 1.000x290161"
	},
	"scenes":[{
		"nodes":[0,
		1,
		2]
	}],
	"nodes":[{
		"name":"Cube",
		"mesh":0,
		"translation":[322.3551940917969,
		117.82398986816406,
		609.4105834960938],
		"rotation":[0.0,
		0.0,
		0.0,
		-1.0],
		"scale":[1.0,
		1.0,
		1.0]
	},
	{
		"name":"Camera",
		"translation":[735.88916015625,
		495.8309326171875,
		692.5791015625],
		"rotation":[0.20997297763824464,
		-0.3857799768447876,
		-0.09062840044498444,
		-0.8937962055206299],
		"scale":[1.0,
		1.0,
		1.0],
		"camera":0
	},
	{
		"name":"Cube.011",
		"mesh":1,
		"translation":[-30.141067504882814,
		48.573158264160159,
		1169.5628662109376],
		"rotation":[0.7071067690849304,
		0.0,
		0.0,
		-0.7071067690849304],
		"scale":[46.514007568359378,
		43.85107421875,
		36.56590270996094]
	}],
	"meshes":[{
		"primitives":[{
			"attributes":{
				"POSITION":1,
				"NORMAL":2,
				"TEXCOORD_0":3
			},
			"indices":0,
			"material":0
		}]
	},
	{
		"primitives":[{
			"attributes":{
				"POSITION":5,
				"NORMAL":6,
				"TEXCOORD_0":7
			},
			"indices":4,
			"material":1
		}]
	}],
	"cameras":[{
		"type":"perspective",
		"perspective":{
			"znear":0.009999999776482582,
			"zfar":10000000000.0,
			"aspectRatio":1.7777777910232545,
			"yfov":0.3995964825153351
		}
	}],
	"accessors":[{
		"bufferView":0,
		"type":"SCALAR",
		"componentType":5123,
		"count":432,
		"byteOffset":0,
		"min":[0],
		"max":[287]
	},
	{
		"bufferView":1,
		"type":"VEC3",
		"componentType":5126,
		"count":288,
		"byteOffset":0,
		"min":[-1242.5679931640626,
		-130.6764373779297,
		-1052.23974609375],
		"max":[1216.4036865234376,
		356.7383117675781,
		981.552001953125]
	},
	{
		"bufferView":1,
		"type":"VEC3",
		"componentType":5126,
		"count":288,
		"byteOffset":12,
		"min":[-1.0,
		-1.0,
		-1.0],
		"max":[1.0,
		1.0,
		1.0]
	},
	{
		"bufferView":1,
		"type":"VEC2",
		"componentType":5126,
		"count":288,
		"byteOffset":24,
		"min":[0.008349704556167126,
		0.008349703624844551],
		"max":[0.9916502833366394,
		0.9830281734466553]
	},
	{
		"bufferView":2,
		"type":"SCALAR",
		"componentType":5123,
		"count":36,
		"byteOffset":0,
		"min":[0],
		"max":[23]
	},
	{
		"bufferView":3,
		"type":"VEC3",
		"componentType":5126,
		"count":24,
		"byteOffset":0,
		"min":[-1.0,
		-1.0,
		-1.0],
		"max":[1.0,
		1.0,
		1.0]
	},
	{
		"bufferView":3,
		"type":"VEC3",
		"componentType":5126,
		"count":24,
		"byteOffset":12,
		"min":[-1.0,
		-1.0,
		-1.0],
		"max":[1.0,
		1.0,
		1.0]
	},
	{
		"bufferView":3,
		"type":"VEC2",
		"componentType":5126,
		"count":24,
		"byteOffset":24,
		"min":[0.125,
		0.0],
		"max":[0.875,
		1.0]
	},
	{
		"bufferView":4,
		"type":"SCALAR",
		"componentType":5126,
		"count":242,
		"byteOffset":0,
		"min":[0.0],
		"max":[10.041666984558106]
	},
	{
		"bufferView":4,
		"type":"VEC3",
		"componentType":5126,
		"count":242,
		"byteOffset":968,
		"min":[-49.12180709838867,
		0.0,
		296.70361328125],
		"max":[627.095703125,
		0.0,
		1169.5628662109376]
	},
	{
		"bufferView":5,
		"type":"SCALAR",
		"componentType":5126,
		"count":242,
		"byteOffset":0,
		"min":[0.0],
		"max":[10.041666984558106]
	},
	{
		"bufferView":5,
		"type":"VEC4",
		"componentType":5126,
		"count":242,
		"byteOffset":968,
		"min":[0.7071067690849304,
		0.0,
		0.0,
		-0.7071067690849304],
		"max":[0.7071067690849304,
		0.0,
		0.0,
		-0.7071067690849304]
	},
	{
		"bufferView":6,
		"type":"SCALAR",
		"componentType":5126,
		"count":242,
		"byteOffset":0,
		"min":[0.0],
		"max":[10.041666984558106]
	},
	{
		"bufferView":6,
		"type":"VEC3",
		"componentType":5126,
		"count":242,
		"byteOffset":968,
		"min":[46.514007568359378,
		43.85107421875,
		36.56590270996094],
		"max":[46.514007568359378,
		43.85107421875,
		36.56590270996094]
	}],
	"bufferViews":[{
		"buffer":0,
		"byteOffset":0,
		"byteLength":864,
		"target":34963
	},
	{
		"buffer":0,
		"byteOffset":864,
		"byteLength":9216,
		"target":34962,
		"byteStride":32
	},
	{
		"buffer":1,
		"byteOffset":0,
		"byteLength":72,
		"target":34963
	},
	{
		"buffer":1,
		"byteOffset":72,
		"byteLength":768,
		"target":34962,
		"byteStride":32
	},
	{
		"buffer":2,
		"byteOffset":0,
		"byteLength":3872
	},
	{
		"buffer":2,
		"byteOffset":3872,
		"byteLength":4840
	},
	{
		"buffer":2,
		"byteOffset":8712,
		"byteLength":3872
	}],
	"buffers":[{
		"uri":"data:application/octet-stream;base64,",
		"byteLength":10080
	},
	{
		"uri":"data:application/octet-stream;base64,",
		"byteLength":840
	},
	{
		"uri":"data:application/octet-stream;base64,",
		"byteLength":12584
	}],
	"images":[{
		"uri":"data:image/jpeg;base64,"
	}],
	"samplers":[{
		"magFilter":9729,
		"minFilter":9729,
		"wrapS":10497,
		"wrapT":10497
	}],
	"textures":[{
		"sampler":0,
		"source":0
	}],
	"materials":[{
		"pbrMetallicRoughness":{
			"baseColorFactor":[1.0,
			1.0,
			1.0,
			1.0],
			"metallicFactor":1.0,
			"roughnessFactor":1.0
		},
		"emissiveTexture":{
			"index":0
		},
		"emissiveFactor":[1.0,
		1.0,
		1.0],
		"alphaMode":"OPAQUE",
		"doubleSided":false,
		"name":"Mat"
	},
	{
		"pbrMetallicRoughness":{
			"baseColorFactor":[0.8,
			0.8,
			0.8,
			1.0],
			"metallicFactor":0.0,
			"roughnessFactor":0.5
		},
		"emissiveFactor":[0.0,
		0.0,
		0.0],
		"alphaMode":"OPAQUE",
		"doubleSided":false,
		"name":"Mat.1"
	}],
	"animations":[{
		"samplers":[{
			"input":8,
			"interpolation":"LINEAR",
			"output":9
		},
		{
			"input":10,
			"interpolation":"LINEAR",
			"output":11
		},
		{
			"input":12,
			"interpolation":"LINEAR",
			"output":13
		}],
		"channels":[{
			"sampler":0,
			"target":{
				"node":2,
				"path":"translation"
			}
		},
		{
			"sampler":1,
			"target":{
				"node":2,
				"path":"rotation"
			}
		},
		{
			"sampler":2,
			"target":{
				"node":2,
				"path":"scale"
			}
		}]
	}]
}